<?xml version="1.0" encoding="UTF-8"?>
<svg xmlns="http://www.w3.org/2000/svg" xmlns:xlink="http://www.w3.org/1999/xlink" width="16px" height="16px" viewBox="0 0 16 16" version="1.1">
<g id="surface1">
<path style=" stroke:none;fill-rule:nonzero;fill:rgb(0%,0%,0%);fill-opacity:1;" d="M 15 2.332031 L 1 2.332031 C 0.449219 2.332031 0 2.78125 0 3.332031 L 0 12.667969 C 0 13.21875 0.449219 13.667969 1 13.667969 L 15 13.667969 C 15.550781 13.667969 16 13.21875 16 12.667969 L 16 3.332031 C 16 2.78125 15.550781 2.332031 15 2.332031 Z M 14.785156 3 L 8 8.246094 L 1.214844 3 Z M 0.667969 12.53125 L 0.667969 3.421875 L 5.804688 7.390625 Z M 1.136719 13 L 6.332031 7.804688 L 7.792969 8.933594 C 7.914062 9.027344 8.082031 9.027344 8.199219 8.933594 L 9.667969 7.804688 L 14.863281 13 Z M 15.332031 12.53125 L 10.195312 7.390625 L 15.332031 3.421875 Z M 15.332031 12.53125 "/>
</g>
</svg>
