<?xml version="1.0" encoding="UTF-8"?>
<svg xmlns="http://www.w3.org/2000/svg" xmlns:xlink="http://www.w3.org/1999/xlink" width="16px" height="16px" viewBox="0 0 16 16" version="1.1">
<g id="surface1">
<path style=" stroke:none;fill-rule:evenodd;fill:rgb(0%,0%,0%);fill-opacity:1;" d="M 9.417969 13.917969 C 9.382812 13.894531 9.351562 13.871094 9.324219 13.839844 C 9.214844 13.726562 9.175781 13.578125 9.175781 13.457031 C 9.175781 13.261719 9.183594 12.625 9.183594 11.839844 C 9.183594 11.339844 9.015625 11.058594 8.878906 10.933594 C 8.714844 10.792969 8.800781 10.523438 9.011719 10.5 C 10.21875 10.359375 11.414062 9.933594 11.414062 7.835938 C 11.414062 7.253906 11.214844 6.789062 10.886719 6.421875 C 10.824219 6.351562 10.804688 6.25 10.839844 6.160156 C 10.882812 6.0625 11.023438 5.644531 10.871094 5.046875 L 10.832031 4.933594 C 10.644531 4.949219 10.238281 5.046875 9.582031 5.503906 C 9.519531 5.546875 9.441406 5.558594 9.371094 5.539062 C 8.9375 5.414062 8.46875 5.355469 8 5.351562 C 7.535156 5.355469 7.070312 5.414062 6.632812 5.539062 C 6.5625 5.558594 6.484375 5.546875 6.421875 5.503906 C 5.761719 5.046875 5.359375 4.949219 5.171875 4.933594 L 5.132812 5.046875 C 4.980469 5.644531 5.125 6.066406 5.164062 6.164062 C 5.195312 6.25 5.179688 6.351562 5.117188 6.421875 C 4.789062 6.789062 4.589844 7.253906 4.589844 7.835938 C 4.589844 9.917969 5.773438 10.359375 6.984375 10.503906 C 7.195312 10.53125 7.28125 10.796875 7.121094 10.941406 C 7.007812 11.039062 6.882812 11.238281 6.835938 11.570312 C 6.828125 11.65625 6.773438 11.726562 6.695312 11.765625 C 6.347656 11.925781 5.320312 12.261719 4.699219 11.171875 C 4.695312 11.167969 4.632812 11.054688 4.519531 10.941406 L 4.636719 11.105469 C 4.71875 11.234375 4.796875 11.390625 4.875 11.59375 C 4.859375 11.539062 5.117188 12.519531 6.515625 12.207031 C 6.671875 12.171875 6.820312 12.292969 6.820312 12.453125 C 6.824219 12.933594 6.828125 13.328125 6.828125 13.457031 C 6.828125 13.582031 6.789062 13.730469 6.660156 13.859375 L 6.605469 13.90625 C 6.472656 13.996094 6.3125 14.019531 6.140625 13.988281 L 6.105469 13.976562 C 3.722656 13.164062 2.011719 10.855469 2.011719 8.144531 C 2.011719 4.757812 4.6875 2 8 2 C 11.3125 2 13.996094 4.757812 13.996094 8.144531 C 13.996094 10.855469 12.28125 13.160156 9.902344 13.976562 L 9.867188 13.984375 C 9.703125 14.019531 9.546875 14 9.417969 13.917969 Z M 9.757812 13.496094 L 10.140625 13.347656 C 12.109375 12.492188 13.496094 10.488281 13.496094 8.144531 C 13.496094 5.023438 11.027344 2.5 8 2.5 C 4.976562 2.5 2.511719 5.019531 2.511719 8.144531 C 2.511719 10.488281 3.898438 12.492188 5.867188 13.347656 L 6.246094 13.496094 L 6.316406 13.496094 L 6.328125 13.457031 C 6.328125 13.347656 6.324219 13.125 6.324219 12.804688 L 6.3125 12.75 C 4.988281 12.910156 4.527344 12.0625 4.421875 11.808594 L 4.402344 11.753906 C 4.167969 11.140625 3.84375 11 3.890625 11.023438 L 3.855469 11.003906 C 3.746094 10.925781 3.652344 10.847656 3.597656 10.761719 C 3.425781 10.503906 3.585938 10.304688 3.761719 10.238281 C 3.890625 10.1875 4.046875 10.191406 4.054688 10.191406 C 4.78125 10.242188 5.140625 10.9375 5.136719 10.929688 C 5.441406 11.460938 5.875 11.492188 6.199219 11.414062 L 6.375 11.351562 L 6.40625 11.203125 C 6.433594 11.113281 6.46875 11.027344 6.511719 10.9375 L 6.414062 10.921875 C 5.226562 10.667969 4.089844 9.960938 4.089844 7.835938 C 4.089844 7.304688 4.226562 6.84375 4.46875 6.453125 L 4.652344 6.210938 L 4.628906 6.121094 C 4.550781 5.8125 4.496094 5.269531 4.753906 4.601562 C 4.78125 4.535156 4.835938 4.480469 4.910156 4.457031 C 4.992188 4.425781 5.433594 4.332031 6.304688 4.835938 L 6.613281 5.035156 L 7.238281 4.90625 C 7.492188 4.871094 7.746094 4.851562 8 4.851562 C 8.253906 4.851562 8.511719 4.871094 8.765625 4.90625 L 9.390625 5.035156 L 9.695312 4.835938 C 10.566406 4.332031 11.011719 4.429688 11.09375 4.457031 C 11.167969 4.480469 11.222656 4.53125 11.25 4.601562 C 11.507812 5.269531 11.453125 5.8125 11.375 6.121094 L 11.351562 6.210938 L 11.535156 6.453125 C 11.777344 6.84375 11.914062 7.304688 11.914062 7.835938 C 11.914062 9.976562 10.765625 10.671875 9.578125 10.914062 L 9.476562 10.929688 L 9.546875 11.0625 C 9.632812 11.277344 9.683594 11.535156 9.683594 11.839844 C 9.683594 12.625 9.675781 13.261719 9.675781 13.457031 L 9.6875 13.496094 Z M 9.757812 13.496094 "/>
<path style=" stroke:none;fill-rule:evenodd;fill:rgb(0%,0%,0%);fill-opacity:1;" d="M 0 14.539062 L 0 1.460938 C 0 0.65625 0.65625 0 1.460938 0 L 14.539062 0 C 15.34375 0 16 0.65625 16 1.460938 L 16 14.539062 C 16 15.34375 15.34375 16 14.539062 16 L 1.460938 16 C 0.65625 16 0 15.34375 0 14.539062 Z M 15.5 14.539062 L 15.5 1.460938 C 15.5 0.933594 15.066406 0.5 14.539062 0.5 L 1.460938 0.5 C 0.929688 0.5 0.5 0.933594 0.5 1.460938 L 0.5 14.539062 C 0.5 15.070312 0.929688 15.5 1.460938 15.5 L 14.539062 15.5 C 15.066406 15.5 15.5 15.070312 15.5 14.539062 Z M 15.5 14.539062 "/>
</g>
</svg>
