<?xml version="1.0" encoding="UTF-8"?>
<svg xmlns="http://www.w3.org/2000/svg" xmlns:xlink="http://www.w3.org/1999/xlink" width="16px" height="16px" viewBox="0 0 16 16" version="1.1">
<g id="surface1">
<path style=" stroke:none;fill-rule:nonzero;fill:rgb(2.352941%,16.862745%,19.215686%);fill-opacity:1;" d="M 13.261719 2.5625 C 13.359375 2.5625 13.4375 2.640625 13.4375 2.738281 L 13.4375 13.261719 C 13.4375 13.359375 13.359375 13.4375 13.261719 13.4375 L 2.738281 13.4375 C 2.640625 13.4375 2.5625 13.359375 2.5625 13.261719 L 2.5625 2.738281 C 2.5625 2.640625 2.640625 2.5625 2.738281 2.5625 L 13.261719 2.5625 M 13.261719 1.75 L 2.738281 1.75 C 2.191406 1.75 1.75 2.191406 1.75 2.738281 L 1.75 13.261719 C 1.75 13.808594 2.191406 14.25 2.738281 14.25 L 13.261719 14.25 C 13.808594 14.25 14.25 13.808594 14.25 13.261719 L 14.25 2.738281 C 14.25 2.476562 14.148438 2.226562 13.960938 2.039062 C 13.777344 1.855469 13.523438 1.75 13.261719 1.75 Z M 13.261719 1.75 "/>
<path style=" stroke:none;fill-rule:nonzero;fill:rgb(2.352941%,16.862745%,19.215686%);fill-opacity:1;" d="M 4.660156 6.300781 L 6.125 6.300781 L 6.125 11.515625 L 4.660156 11.515625 Z M 4.660156 6.300781 "/>
<path style=" stroke:none;fill-rule:nonzero;fill:rgb(2.352941%,16.862745%,19.215686%);fill-opacity:1;" d="M 9.652344 6.300781 C 8.398438 6.300781 8.375 7.027344 8.375 7.078125 L 8.375 6.300781 L 6.875 6.300781 L 6.875 11.515625 L 8.375 11.515625 L 8.375 8.539062 C 8.375 8.304688 8.445312 7.804688 9.152344 7.804688 C 9.863281 7.804688 9.859375 8.523438 9.859375 8.523438 L 9.859375 11.523438 L 11.339844 11.523438 L 11.339844 8.273438 C 11.339844 6.730469 10.5 6.300781 9.652344 6.300781 Z M 9.652344 6.300781 "/>
<path style=" stroke:none;fill-rule:nonzero;fill:rgb(2.352941%,16.862745%,19.215686%);fill-opacity:1;" d="M 6.125 5.214844 C 6.125 5.621094 5.796875 5.949219 5.390625 5.949219 C 4.988281 5.949219 4.660156 5.621094 4.660156 5.214844 C 4.660156 4.8125 4.988281 4.484375 5.390625 4.484375 C 5.796875 4.484375 6.125 4.8125 6.125 5.214844 Z M 6.125 5.214844 "/>
</g>
</svg>
